# xmcd
#
# Track frame offsets:
#	150
#	18727
#	32304
#	48578
#	68207
#	83275
#	105889
#	124588
#	144459
#	165323
#	178992
#	194066
#	209882
#	227274
#	242197
#	258009
#	276142
#	293163
#
# Disc length: 4136 seconds
#
# Revision: 1
# Processed by: cddbd v1.5.2PL0 Copyright (c) Steve Scherf et al.
# Submitted via: audiograbber 1.83.01
#
DISCID=f7102612
DTITLE=Various Artist - MRH104
DYEAR=1900
DGENRE=KARAOKE
TTITLE0=DUKE, DUMONT AND AME - NEED U (100%)
TTITLE1=RIHANNA - POUR IT UP
TTITLE2=MICHALE BUBLE - IT'S A BEAUTIFUL DAY
TTITLE3=PJ AND DUNCAN (ANT AND DEC) - LET'S GET READY TO RUMBLE
TTITLE4=MISHA B - HERE'S TO EVERYTHING
TTITLE5=WILL I AM, FEAT, JUSTIN BIEBER - THAT POWER
TTITLE6=CALVIN HARRIS, FEAT, ELLIE GOULD - I NEED YOUR LOVE
TTITLE7=PARAMORE - NOW
TTITLE8=MACKLEMORE AND RYAN LEWIS - CAN'T HOLD US
TTITLE9=NINA NESBITT - STAY OUT
TTITLE10=ALUNAGEORGE - ATTRACTING FLIES
TTITLE11=GABRIELLE APLIN - PANIC CORD
TTITLE12=MAT ZO AND PORTER ROBINSON - EASY
TTITLE13=IMAGINE DRAGONS - ADIOACTIVE
TTITLE14=CHARLIE BROWN - ON MY WAY
TTITLE15=ARIANA GRANDE FEAT MAC MILLER - WAY
TTITLE16=NELLY - HEY PORSCHE
TTITLE17=CHRIS BROWN - FINE CHINA
EXTD=
EXTT0=
EXTT1=
EXTT2=
EXTT3=
EXTT4=
EXTT5=
EXTT6=
EXTT7=
EXTT8=
EXTT9=
EXTT10=
EXTT11=
EXTT12=
EXTT13=
EXTT14=
EXTT15=
EXTT16=
EXTT17=
PLAYORDER=
